<svg width="138" height="54" viewBox="0 0 138 54" fill="none" xmlns="http://www.w3.org/2000/svg">
<path d="M0.300003 27C0.300003 12.6 11.8 0.8 26.2 0.5C26.4 0.5 26.6 0.5 26.9 0.5H52.6C46.8 4.1 42.2 9.6 39.8 16.1H26.9C20.9 16.1 16 21 16 27C16 33 20.9 37.9 26.9 37.9H39.8C42.2 44.4 46.8 49.9 52.6 53.5H26.9C26.7 53.5 26.5 53.5 26.2 53.5C11.8 53.2 0.300003 41.4 0.300003 27Z" fill="white"/>
<path d="M137.7 27C137.7 41.4 126.2 53.2 111.8 53.5C111.6 53.5 111.4 53.5 111.1 53.5H85.3C91.1 49.9 95.7 44.4 98.1 37.9H111C111.3 37.9 111.6 37.9 111.9 37.9C112.4 37.9 112.8 37.8 113.3 37.7C118.3 36.7 122 32.3 122 27C122 21.7 118.3 17.3 113.3 16.3C111.9 10.5 109.4 5.2 106 0.5H111.7C126.2 0.8 137.7 12.6 137.7 27Z" fill="white"/>
<path d="M94.1 35.6C90.5 46 80.6 53.6 69 53.6C57.4 53.6 47.4 46.1 43.9 35.6H56.8C59.5 39.4 63.9 41.9 69 41.9C74 41.9 78.5 39.4 81.2 35.6H94.1Z" fill="#EE2426"/>
<path d="M95.5 27L74 18.4H81.2C78.5 14.6 74.1 12.1 69 12.1C60.8 12.1 54.1 18.8 54.1 27H42.5C42.5 12.3 54.4 0.5 69 0.5C83.6 0.5 95.5 12.4 95.5 27Z" fill="#EE2426"/>
<path d="M102.7 16H98.2C95.8 9.5 91.2 4 85.4 0.400002H92.5C97.2 4.6 100.8 10 102.7 16Z" fill="#EE2426"/>
<path d="M110.5 16H105.7C103.9 10.1 100.8 4.8 96.6 0.400002H102.8C106.3 5 109 10.3 110.5 16Z" fill="#EE2426"/>
</svg>
